<svg width="19" height="18" viewBox="0 0 19 18" fill="none" xmlns="http://www.w3.org/2000/svg">
  <path
    d="M10.4001 4.49999C11.3943 4.49999 12.2001 3.69411 12.2001 2.69999C12.2001 1.70588 11.3943 0.899994 10.4001 0.899994C9.40603 0.899994 8.60015 1.70588 8.60015 2.69999L8.60008 4.83049L6.80305 4.60586C5.89974 4.49295 5.05432 5.07224 4.83353 5.9554L4.12695 8.78171L5.87321 9.21828L6.57979 6.39196L8.40694 6.62036L7.71629 9.72827L7.30437 12.1998L4.32276 15.6073L5.6774 16.7926L8.65901 13.3851C8.87917 13.1335 9.02491 12.8255 9.07988 12.4957L9.24445 11.5083L11.3001 13.05V17.1H13.1001V13.05C13.1001 12.4834 12.8333 11.9499 12.3801 11.61L9.60461 9.52839L10.1286 7.17048L11.3304 7.7714C11.9082 8.06028 12.5964 8.01743 13.1339 7.65912L15.3993 6.14884L14.4009 4.65115L12.1354 6.16143L10.4001 5.29376L10.4001 4.49999Z"
    fill="#151617"></path>
</svg>